<?xml version="1.0" encoding="utf-8"?>
<!-- Generator: Adobe Illustrator 26.0.3, SVG Export Plug-In . SVG Version: 6.00 Build 0)  -->
<svg version="1.0" id="katman_1" xmlns="http://www.w3.org/2000/svg" xmlns:xlink="http://www.w3.org/1999/xlink" x="0px" y="0px"
	 viewBox="0 0 600 450" style="enable-background:new 0 0 600 450;" xml:space="preserve">
<style type="text/css">
	.st0{fill:none;stroke:#DF0A20;stroke-width:4.9121;stroke-linecap:round;stroke-miterlimit:10;}
	.st1{fill:#FFFFFF;stroke:#DF0A20;stroke-width:4.9121;stroke-linecap:round;stroke-linejoin:round;stroke-miterlimit:10;}
	.st2{fill:none;stroke:#DF0A20;stroke-width:4.9121;stroke-linecap:round;stroke-miterlimit:10;stroke-opacity:0;}
	.st3{fill:#FFFFFF;stroke:#DF0A20;stroke-width:12.2801;stroke-linecap:square;stroke-linejoin:round;stroke-miterlimit:10;}
	.st4{fill:none;stroke:#DF0A20;stroke-width:9.8241;stroke-linecap:round;stroke-miterlimit:10;}
	.st5{fill:#FFFFFF;stroke:#DF0A20;stroke-width:9.8241;stroke-linecap:round;stroke-linejoin:round;stroke-miterlimit:10;}
	.st6{fill:#FFFFFF;stroke:#DF0A20;stroke-width:12.2801;stroke-linecap:round;stroke-linejoin:round;stroke-miterlimit:10;}
	.st7{fill:none;stroke:#DF0A20;stroke-width:12.2801;stroke-linecap:round;stroke-linejoin:round;stroke-miterlimit:10;}
</style>
<g id="e2b8ltbmmf432" transform="matrix(1 0 0 1 40.16399998999999 40.36799999999996)">
	<path id="e2b8ltbmmf434" class="st0" d="M62.3,306.3h196.1"/>
	<path id="e2b8ltbmmf435" class="st1" d="M277.7,133.2h88.3"/>
	<path id="e2b8ltbmmf436" class="st2" d="M182,48h132.4"/>
	<path id="e2b8ltbmmf437" class="st2" d="M49.6,330h39.2"/>
	<path id="e2b8ltbmmf438" class="st2" d="M387.2,182.4h39.2"/>
	<path id="e2b8ltbmmf439" class="st1" d="M62.8,225.7h73.6"/>
	<g id="e2b8ltbmmf4310" transform="matrix(1 0 0 1 3.58100000000000 17.90900000000000)">
		<path id="e2b8ltbmmf4311" class="st3" d="M225.4,248.4c-8.6,15.2-26.2,22.8-43.1,18.5c-16.9-4.3-28.8-19.3-29.2-36.8
			c-0.4-17.5,10.9-33,27.5-38.1"/>
		<line id="e2b8ltbmmf4312" class="st4" x1="173.1" y1="262.1" x2="177.1" y2="253.1"/>
		<path id="e2b8ltbmmf4313" class="st5" d="M408.5,199.9c15.5,11.8,19.9,33.2,10.3,50.1c-9.6,16.9-30.2,24.1-48.2,16.7
			c-18-7.4-27.7-27-22.8-45.8"/>
		<line id="e2b8ltbmmf4314" class="st4" x1="422.9" y1="234.7" x2="413.2" y2="236.4"/>
		<path id="e2b8ltbmmf4315" class="st6" d="M410.3,161.1l-6.6-14.3c-1.4-3-4.4-5-7.8-5h-59.5c-4.4,0-8.4,2.3-10.7,6.1l-31.1,52
			c-2.7,4-7.2,6.4-12,6.4h-22.7c-4.7,0-9-2.4-11.6-6.3l-15.6-23.4c-2.4-3.6-3-8.2-1.5-12.3l14.3-39.6c0.7-1.9-0.1-4-1.7-5l-12.9-8
			c-2.1-1.3-4.9-0.8-6.4,1.3l-39.9,55.2c-3,4.2-3.1,9.8-0.2,14.1l40.8,60c2.6,3.8,7,6.1,11.6,6h113.7"/>
		<line id="e2b8ltbmmf4316" class="st7" x1="386" y1="230.7" x2="243.8" y2="230.7"/>
		<path id="e2b8ltbmmf4317" class="st6" d="M380.3,160.5H350c-4.3,0-8.4,2.4-10.5,6.2l-18.7,32.8c-1,1.8-1,3.9,0,5.7
			s2.9,2.9,4.9,2.9l87.8,0.4c4,0,7.7-1.9,9.9-5.2l0,0c2.4-3.5,2.7-7.9,1-11.7l-15.1-32.7"/>
		<line id="e2b8ltbmmf4318" class="st7" x1="245.7" y1="61.8" x2="219.5" y2="100.6"/>
		<line id="e2b8ltbmmf4319" class="st7" x1="231.9" y1="82.3" x2="264.7" y2="101.6"/>
		<line id="e2b8ltbmmf4320" class="st7" x1="254.9" y1="96.2" x2="240.6" y2="117.7"/>
		<line id="e2b8ltbmmf4321" class="st7" x1="189" y1="230.7" x2="214" y2="230.7"/>
	</g>
</g>
</svg>
